<svg width="31" height="31" viewBox="0 0 31 31" fill="none" xmlns="http://www.w3.org/2000/svg">
<path d="M11.1253 18.4168C12.279 18.4168 13.4069 18.0747 14.3662 17.4337C15.3254 16.7927 16.0731 15.8817 16.5146 14.8158C16.9561 13.7499 17.0717 12.577 16.8466 11.4454C16.6215 10.3139 16.0659 9.27447 15.2501 8.45866C14.4343 7.64285 13.3949 7.08728 12.2634 6.8622C11.1318 6.63712 9.95891 6.75264 8.89301 7.19415C7.8271 7.63566 6.91606 8.38334 6.27509 9.34262C5.63411 10.3019 5.29199 11.4297 5.29199 12.5834C5.29199 14.1305 5.90657 15.6143 7.00054 16.7082C8.0945 17.8022 9.57823 18.4168 11.1253 18.4168ZM11.1253 9.66678C11.7022 9.66678 12.2661 9.83784 12.7457 10.1583C13.2254 10.4788 13.5992 10.9343 13.82 11.4673C14.0407 12.0002 14.0985 12.5867 13.9859 13.1525C13.8734 13.7182 13.5956 14.2379 13.1877 14.6458C12.7798 15.0537 12.2601 15.3315 11.6943 15.4441C11.1286 15.5566 10.5421 15.4989 10.0092 15.2781C9.47622 15.0573 9.02069 14.6835 8.70021 14.2039C8.37972 13.7242 8.20866 13.1603 8.20866 12.5834C8.20866 11.8099 8.51595 11.068 9.06293 10.5211C9.60991 9.97407 10.3518 9.66678 11.1253 9.66678ZM6.75033 19.8751H15.5003C17.0474 19.8751 18.5312 20.4897 19.6251 21.5837C20.7191 22.6776 21.3337 24.1614 21.3337 25.7085V28.6251C21.3337 29.0119 21.18 29.3828 20.9065 29.6563C20.633 29.9298 20.2621 30.0835 19.8753 30.0835C19.4886 30.0835 19.1176 29.9298 18.8441 29.6563C18.5706 29.3828 18.417 29.0119 18.417 28.6251V25.7085C18.417 24.9349 18.1097 24.193 17.5627 23.6461C17.0157 23.0991 16.2739 22.7918 15.5003 22.7918H6.75033C5.97678 22.7918 5.23491 23.0991 4.68793 23.6461C4.14095 24.193 3.83366 24.9349 3.83366 25.7085V28.6251C3.83366 29.0119 3.68001 29.3828 3.40652 29.6563C3.13303 29.9298 2.7621 30.0835 2.37533 30.0835C1.98855 30.0835 1.61762 29.9298 1.34413 29.6563C1.07064 29.3828 0.916992 29.0119 0.916992 28.6251V25.7085C0.916992 24.1614 1.53157 22.6776 2.62554 21.5837C3.7195 20.4897 5.20323 19.8751 6.75033 19.8751ZM23.4657 12.5834C23.4687 13.7358 23.2431 14.8773 22.802 15.9419C22.361 17.0065 21.7132 17.9731 20.8962 18.7857C20.6211 19.0514 20.2527 19.1984 19.8704 19.1951C19.488 19.1917 19.1222 19.0384 18.8518 18.768C18.5815 18.4976 18.4281 18.1318 18.4248 17.7495C18.4214 17.3671 18.5684 16.9987 18.8341 16.7237C19.9321 15.6256 20.549 14.1363 20.549 12.5834C20.549 11.0306 19.9321 9.5413 18.8341 8.44324C18.6948 8.30871 18.5837 8.14779 18.5073 7.96987C18.4308 7.79195 18.3906 7.60059 18.3889 7.40695C18.3872 7.21331 18.4241 7.02128 18.4975 6.84206C18.5708 6.66283 18.6791 6.50001 18.816 6.36308C18.9529 6.22615 19.1158 6.11787 19.295 6.04454C19.4742 5.97122 19.6662 5.93432 19.8599 5.936C20.0535 5.93768 20.2449 5.97791 20.4228 6.05434C20.6007 6.13077 20.7616 6.24187 20.8962 6.38116C21.7132 7.1938 22.361 8.16038 22.802 9.22499C23.2431 10.2896 23.4687 11.4311 23.4657 12.5834ZM23.2018 23.8126C22.933 23.5345 22.7857 23.161 22.7922 22.7743C22.7988 22.3876 22.9587 22.0193 23.2368 21.7505C24.4785 20.5699 25.4672 19.149 26.1429 17.5744C26.8185 15.9998 27.1669 14.3042 27.1669 12.5907C27.1669 10.8773 26.8185 9.18172 26.1429 7.60709C25.4672 6.03245 24.4785 4.61162 23.2368 3.43095C22.9577 3.16117 22.7973 2.79159 22.7907 2.40351C22.7841 2.01543 22.932 1.64063 23.2018 1.36157C23.4716 1.08252 23.8411 0.922057 24.2292 0.915493C24.6173 0.908929 24.9921 1.0568 25.2712 1.32657C26.7943 2.77927 28.0067 4.52594 28.8351 6.46085C29.6635 8.39576 30.0907 10.4787 30.0907 12.5834C30.0907 14.6882 29.6635 16.7711 28.8351 18.706C28.0067 20.641 26.7943 22.3876 25.2712 23.8403C24.9931 24.1091 24.6196 24.2565 24.2329 24.2499C23.8462 24.2433 23.4779 24.0834 23.2091 23.8053L23.2018 23.8126Z" fill="white"/>
</svg>
